<svg width="24" height="24" viewBox="0 0 24 24" fill="none" xmlns="http://www.w3.org/2000/svg">
<g clip-path="url(#clip0)">
<path d="M20.4853 3.51469C18.2188 1.24823 15.2053 0 12 0C8.79469 0 5.78123 1.24823 3.51469 3.51469C1.24823 5.78123 0 8.79469 0 12C0 15.2053 1.24823 18.2188 3.51469 20.4853C5.78123 22.7518 8.79469 24 12 24C15.2053 24 18.2188 22.7518 20.4853 20.4853C22.7518 18.2188 24 15.2053 24 12C24 8.79469 22.7518 5.78123 20.4853 3.51469ZM20.4295 18.4182C19.622 18.0008 18.7084 17.649 17.7195 17.3702C18.0946 15.9299 18.3151 14.3472 18.3641 12.7031H22.5702C22.4341 14.7937 21.6923 16.7667 20.4295 18.4182ZM1.42978 12.7031H5.63588C5.68491 14.3472 5.90541 15.93 6.28045 17.3702C5.29158 17.649 4.37798 18.0008 3.57052 18.4182C2.30766 16.7667 1.56586 14.7937 1.42978 12.7031ZM3.57052 5.58178C4.37798 5.99916 5.29158 6.35105 6.28045 6.62977C5.90541 8.07009 5.68491 9.65278 5.63588 11.2969H1.42978C1.56586 9.20625 2.30766 7.23328 3.57052 5.58178ZM11.2969 5.96489C10.1781 5.92912 9.09019 5.80842 8.06691 5.61052C8.23219 5.15873 8.41589 4.7295 8.61778 4.32741C9.37022 2.82867 10.3187 1.84636 11.2969 1.5233V5.96489ZM11.2969 7.3718V11.2969H7.04269C7.09106 9.76102 7.29755 8.28966 7.64653 6.95892C8.80359 7.19273 10.0346 7.3335 11.2969 7.3718ZM11.2969 12.7031V16.6282C10.0346 16.6665 8.80359 16.8073 7.64653 17.0411C7.29755 15.7103 7.09106 14.239 7.04269 12.7032H11.2969V12.7031ZM11.2969 18.0351V22.4767C10.3187 22.1536 9.37022 21.1713 8.61778 19.6726C8.41589 19.2705 8.23219 18.8412 8.06691 18.3895C9.09014 18.1916 10.1781 18.0709 11.2969 18.0351ZM12.7031 18.0351C13.8219 18.0709 14.9099 18.1916 15.9331 18.3895C15.7678 18.8413 15.5841 19.2705 15.3822 19.6726C14.6297 21.1713 13.6813 22.1536 12.7031 22.4767V18.0351ZM12.7031 16.6282V12.7031H16.9573C16.9089 14.239 16.7025 15.7103 16.3535 17.041C15.1964 16.8073 13.9654 16.6665 12.7031 16.6282ZM12.7031 11.2969V7.3718C13.9654 7.33345 15.1964 7.19273 16.3535 6.95892C16.7025 8.28966 16.9089 9.76102 16.9573 11.2969H12.7031ZM12.7031 5.96489V1.5233C13.6813 1.84636 14.6298 2.82867 15.3822 4.32741C15.5841 4.7295 15.7678 5.15873 15.9331 5.61052C14.9098 5.80842 13.8219 5.92912 12.7031 5.96489ZM16.639 3.69638C16.3212 3.06342 15.9713 2.50683 15.5957 2.02941C17.0347 2.54728 18.3543 3.37884 19.4703 4.48903C18.8163 4.80098 18.0903 5.06836 17.3105 5.28675C17.1124 4.72509 16.8882 4.19283 16.639 3.69638ZM7.36102 3.69638C7.11178 4.19278 6.88763 4.72505 6.68948 5.28675C5.90963 5.06836 5.18367 4.80098 4.52962 4.48903C5.64563 3.37884 6.9653 2.54728 8.40427 2.02941C8.02866 2.50683 7.67883 3.06347 7.36102 3.69638ZM6.68948 18.7132C6.88763 19.2749 7.11178 19.8072 7.36102 20.3036C7.67883 20.9365 8.02866 21.4931 8.40431 21.9705C6.96534 21.4527 5.64567 20.6211 4.52967 19.5109C5.18367 19.199 5.90967 18.9316 6.68948 18.7132ZM16.639 20.3036C16.8882 19.8072 17.1124 19.275 17.3105 18.7132C18.0903 18.9316 18.8163 19.199 19.4704 19.511C18.3544 20.6212 17.0347 21.4527 15.5957 21.9706C15.9713 21.4932 16.3212 20.9365 16.639 20.3036ZM18.3641 11.2969C18.3151 9.65278 18.0946 8.07005 17.7195 6.62977C18.7084 6.35105 19.622 5.99916 20.4295 5.58178C21.6923 7.23328 22.4341 9.20625 22.5702 11.2969H18.3641Z" fill="#00204A"/>
</g>
<defs>
<clipPath id="clip0">
<rect width="24" height="24" fill="white"/>
</clipPath>
</defs>
</svg>
