<svg width="24" height="24" viewBox="0 0 24 24" fill="none" xmlns="http://www.w3.org/2000/svg">
<path d="M12.002 21.041C9.54202 21.041 9.25202 21.028 8.29201 20.986C7.54339 20.9614 6.80445 20.8092 6.10701 20.536C4.90033 20.0664 3.94615 19.1118 3.47701 17.905C3.21432 17.205 3.07263 16.4655 3.05801 15.718C3.00201 14.76 3.00201 14.446 3.00201 12.005C3.00201 9.53797 3.01501 9.24997 3.05801 8.29497C3.07295 7.54849 3.21464 6.80998 3.47701 6.11097C3.94565 4.9025 4.90137 3.94715 6.11001 3.47897C6.80866 3.21518 7.54736 3.07312 8.29401 3.05897C9.24902 3.00497 9.56301 3.00497 12.002 3.00497C14.482 3.00497 14.767 3.01797 15.712 3.05897C16.4606 3.07324 17.2013 3.21528 17.902 3.47897C19.1103 3.94768 20.0659 4.90285 20.535 6.11097C20.8021 6.82017 20.9446 7.57023 20.956 8.32797C21.012 9.28597 21.012 9.59897 21.012 12.039C21.012 14.479 20.998 14.799 20.956 15.746C20.9411 16.4942 20.7991 17.2344 20.536 17.935C20.0657 19.1427 19.1101 20.0976 17.902 20.567C17.2023 20.8292 16.4631 20.9708 15.716 20.986C14.761 21.041 14.448 21.041 12.002 21.041ZM11.968 4.58797C9.52202 4.58797 9.26802 4.59997 8.31301 4.64297C7.743 4.65053 7.17849 4.75572 6.64401 4.95397C5.85477 5.25598 5.23024 5.87797 4.92501 6.66597C4.72523 7.20627 4.62002 7.77695 4.61401 8.35297C4.56101 9.32197 4.56101 9.57597 4.56101 12.005C4.56101 14.405 4.57001 14.696 4.61401 15.659C4.62297 16.2292 4.72811 16.7938 4.92501 17.329C5.23069 18.1165 5.85511 18.738 6.64401 19.04C7.17813 19.2396 7.74287 19.3448 8.31301 19.351C9.28102 19.407 9.53602 19.407 11.968 19.407C14.421 19.407 14.675 19.395 15.622 19.351C16.1924 19.344 16.7574 19.2388 17.292 19.04C18.0765 18.7354 18.6969 18.1153 19.002 17.331C19.2014 16.7902 19.3066 16.2193 19.313 15.643H19.324C19.367 14.687 19.367 14.432 19.367 11.989C19.367 9.54597 19.356 9.28897 19.313 8.33397C19.304 7.76443 19.1989 7.20049 19.002 6.66597C18.6976 5.88055 18.0771 5.25927 17.292 4.95397C16.7575 4.75472 16.1925 4.6495 15.622 4.64297C14.655 4.58797 14.402 4.58797 11.968 4.58797ZM12.002 16.624C10.132 16.6252 8.44543 15.4997 7.72888 13.7724C7.01232 12.0452 7.40692 10.0563 8.72865 8.73344C10.0504 7.41057 12.0389 7.01425 13.7668 7.72931C15.4947 8.44437 16.6216 10.13 16.622 12C16.6193 14.551 14.5531 16.619 12.002 16.624ZM12.002 8.99797C10.3452 8.99797 9.00202 10.3411 9.00202 11.998C9.00202 13.6548 10.3452 14.998 12.002 14.998C13.6589 14.998 15.002 13.6548 15.002 11.998C14.9982 10.3427 13.6573 9.00182 12.002 8.99797ZM16.802 8.28498C16.2074 8.28277 15.7269 7.79956 15.728 7.20498C15.7291 6.6104 16.2114 6.12898 16.806 6.12898C17.4006 6.12898 17.8829 6.61039 17.884 7.20497C17.8843 7.49184 17.7703 7.767 17.5673 7.96965C17.3642 8.17231 17.0889 8.28577 16.802 8.28498Z" fill="#00204A"/>
</svg>
