<svg width="24" height="24" viewBox="0 0 24 24" fill="none" xmlns="http://www.w3.org/2000/svg">
<g clip-path="url(#clip0)">
<path d="M12 0C7.58228 0 3.98828 3.594 3.98828 8.01173C3.98828 12.4292 7.58228 16.0235 12 16.0235C16.4175 16.0235 20.0117 12.4292 20.0117 8.01173C20.0117 3.594 16.4175 0 12 0ZM12 14.4474C8.45148 14.4474 5.56436 11.5603 5.56436 8.01173C5.56436 4.4632 8.45148 1.57608 12 1.57608C15.5488 1.57608 18.4357 4.4632 18.4357 8.01173C18.4357 11.5603 15.5488 14.4474 12 14.4474Z" fill="#00204A"/>
<path d="M17.594 22.8989L17.1999 13.5475L15.6255 13.6136L15.969 21.7646L12.7137 18.9597C12.3068 18.5796 11.6929 18.5791 11.2858 18.9597L8.03063 21.7643L8.37422 13.6136L6.79945 13.5475L6.40542 22.8989C6.40514 22.9099 6.40491 22.921 6.40491 22.932C6.40491 23.3494 6.64734 23.7305 7.02272 23.9029C7.39992 24.0768 7.83333 24.0145 8.15381 23.7389L12 20.4252L15.8472 23.7402C16.0468 23.9112 16.2908 23.9997 16.5377 23.9997C16.6864 23.9997 16.8359 23.968 16.9772 23.9028C17.3523 23.7305 17.5948 23.3494 17.5948 22.9319C17.5948 22.9209 17.5945 22.9099 17.594 22.8989Z" fill="#00204A"/>
<path d="M15.4994 5.61555C15.1915 5.30767 14.6929 5.30767 14.3851 5.61555L10.9529 9.04774L9.35607 7.43149C9.05007 7.12178 8.55123 7.11864 8.24153 7.42464C7.93183 7.73064 7.92868 8.22949 8.23468 8.53919L10.3886 10.7194C10.5362 10.8689 10.737 10.9532 10.9468 10.9538C10.9476 10.9538 10.9484 10.9538 10.9492 10.9538C11.158 10.9538 11.3587 10.8708 11.5066 10.7226L15.4993 6.72991C15.8072 6.42222 15.8072 5.92314 15.4994 5.61555Z" fill="#00204A"/>
</g>
<defs>
<clipPath id="clip0">
<rect width="24" height="24" fill="white"/>
</clipPath>
</defs>
</svg>
