<svg width="64" height="64" viewBox="0 0 64 64" fill="none" xmlns="http://www.w3.org/2000/svg">
<g clip-path="url(#clip0)">
<path d="M52.7347 3.37718L52.7412 3.38951L52.7481 3.40165C59.4443 15.2128 62.9999 28.9937 62.9999 42.7378V50.8749C62.9999 51.2057 62.8137 51.5081 62.5179 51.6568L62.5157 51.658C48.2397 58.8827 34.1053 62.9996 17.0008 62.9996C12.13 62.9996 7.48037 60.8046 4.44795 56.9892C1.40704 53.1618 0.302949 48.1755 1.43443 43.2932C2.75463 37.6961 7.337 33.161 12.9257 31.7643L12.9429 31.76L12.9599 31.7551C15.0519 31.1527 17.4718 31.8078 18.9093 33.0457C19.6164 33.6547 20.0124 34.3397 20.092 35.0008C20.1648 35.6041 19.9924 36.3358 19.2812 37.1536C17.9964 37.9157 17.5006 39.5522 18.1783 40.9094C18.8885 42.3355 20.6188 42.9 22.0337 42.1981L22.0367 42.1966C30.6209 37.9027 41.005 37.9027 49.5892 42.1966L49.5918 42.1979C51.029 42.9117 52.7469 42.3145 53.4473 40.9099C54.1568 39.4896 53.5811 37.7635 52.161 37.0534C51.1962 36.571 50.351 35.6665 49.619 34.4024C48.8894 33.1424 48.3111 31.5919 47.8506 29.9227C46.949 26.6543 46.5397 23.089 46.2622 20.6723L46.2437 20.5112C45.6141 15.0326 44.663 11.6048 43.5625 9.5185C42.4468 7.40315 41.0723 6.50063 39.6254 6.50063H35.7504C34.1618 6.50063 32.8755 7.78696 32.8755 9.3756C32.8755 9.6866 32.9598 10.0164 33.1853 10.3017C33.3983 10.5711 33.6685 10.7126 33.879 10.7917C34.199 10.912 34.6051 10.9596 34.8892 10.9929C34.9295 10.9976 34.9674 11.002 35.0023 11.0063C35.7 11.0928 36.3 11.2143 36.7929 11.7071C37.4207 12.3349 37.7196 12.9459 37.8638 13.3787C37.9365 13.5969 37.9707 13.7721 37.9866 13.8836C37.9946 13.9393 37.9979 13.9787 37.9993 13.9991C37.9997 14.0046 37.9999 14.0087 38 14.0114V14.0761L38.01 14.1415C38.0106 14.1465 38.0117 14.1574 38.0129 14.1738C38.0156 14.2105 38.0188 14.2739 38.0172 14.3592C38.014 14.5304 37.9918 14.7843 37.9121 15.0845C37.7564 15.6713 37.3731 16.4701 36.4 17.2C35.7809 17.6644 34.7976 17.848 33.8191 17.8697C33.3537 17.88 32.9349 17.8531 32.6325 17.8233C32.4821 17.8085 32.3624 17.7932 32.2825 17.782C32.2425 17.7764 32.2127 17.7718 32.194 17.7688L32.1746 17.7657L32.1729 17.7654L32.1725 17.7653L32.1721 17.7653L32.1716 17.7652L32.1715 17.7652L32.0874 17.7504H32.0005C29.4511 17.7504 27.3756 15.6749 27.3756 13.1255V5.62566C27.3756 3.07625 29.4511 1.00076 32.0005 1.00076H48.6998C50.4236 1.00076 51.9615 1.92012 52.7347 3.37718Z" stroke="#005792" stroke-width="2"/>
</g>
<defs>
<clipPath id="clip0">
<rect width="64" height="64" fill="white"/>
</clipPath>
</defs>
</svg>
