<svg width="370" height="460" viewBox="0 0 370 460" fill="none" xmlns="http://www.w3.org/2000/svg">
<path fill-rule="evenodd" clip-rule="evenodd" d="M357.549 -34.1379C363.91 -31.4942 368.108 -26.1581 368.638 -19.8017C368.133 -10.0756 364.632 -7.11097 360.868 -1.30325C358.078 2.83085 352.657 10.1022 347.836 15.7746L330.843 -29.1125C336.815 -35.9903 345.301 -39.2364 357.549 -34.1379ZM372.092 79.7583C373.994 76.7298 375.908 73.7306 377.821 70.7314C382.534 63.36 386.632 56.2215 392.109 49.3638C411.651 24.9704 447.552 -2.13686 473.256 -18.6593C503.572 -38.132 537.199 -43.9036 562.799 -66.2749C568.676 -71.8119 569.336 -74.6711 565.496 -79.2393C553.121 -86.2639 544.101 -82.4812 534.299 -79.1717C494.482 -61.7894 450.024 -37.4644 415.931 -8.49934C398.717 6.11383 374.915 16.8645 370.811 42.3051C367.94 46.1355 365.09 50.0244 362.322 53.9497L372.092 79.7583ZM347.877 15.7927C345.83 18.1734 343.922 20.3009 342.364 21.7606C338.081 25.7571 332.351 24.514 330.681 22.403C328.573 19.7551 325.834 18.1827 324.209 20.7047L319.121 27.8833C318.292 28.9668 317.654 28.8738 317.57 27.768C317.055 21.5397 316.996 9.35067 318.428 1.98367C320.384 -8.15781 323.906 -21.0665 330.854 -29.0832L347.847 15.8038L347.877 15.7927ZM362.322 53.9497C333.581 94.5721 310.172 139.633 283.021 181.359C269.764 201.734 255.335 221.582 240.035 240.456C210.747 276.535 176.498 308.804 131.826 328.493C163.227 276.492 194.067 224.069 229.294 175.537C239.905 160.915 250.929 146.939 261.437 132.222C269.59 120.838 279.169 112.428 295.756 120.668C304.733 111.816 305.59 97.9758 313.203 88.9715C312.898 86.0425 311.297 85.1765 308.868 82.918C295.887 82.0781 281.498 73.2733 270.417 82.3193C261.202 63.9951 247.861 50.3446 230.512 40.8874C226.414 38.8254 219.877 37.2189 213.894 38.8481C180.097 48.0633 155.71 69.0384 129.77 90.6015C120.921 97.9327 64.5747 152.887 60.8277 152.9C59.0533 152.903 58.4305 154.443 57.0587 155.598C50.3646 161.277 35.0401 171.06 44.2106 172.807C56.2433 175.478 66.1716 171.352 74.8943 166.076C84.7296 160.111 94.208 153.645 103.234 146.515C135.634 120.867 164.927 85.154 205.986 78.3083C225.713 75.022 235.633 99.3686 244.124 115.425C199.336 173.831 158.898 235.677 120.53 299.983C112.233 311.957 104.451 324.939 93.221 334.477C38.468 338.511 -15.0335 296.739 -69.5518 302.19C-73.3234 302.581 -73.3727 303.335 -74.4632 306.826C-77.0404 315.062 -74.6197 323.58 -75.8548 331.909C-76.1121 334.415 -74.9696 337.964 -70.8203 337.597C-32.0068 342.341 10.6218 364.241 50.8057 370.038C44.0462 377.315 34.7121 377.436 27.0975 378.914C4.45253 382.368 -20.1757 376.336 -43.6034 369.581C-51.3857 367.342 -89.6584 353.762 -96.2542 359.17C-100.234 366.799 -97.1307 376.764 -97.9714 384.543C-98.5423 387.637 -99.3173 392.58 -97.9937 396.696C-96.2656 398.517 -72.5928 403.707 -59.8325 406.972C-19.8787 419.949 24.3723 427.552 60.2435 408.418C74.2142 400.988 93.193 385.373 102.581 372.652C108.185 371.969 117.146 370.684 126.304 367.886C161.901 357.053 196.924 322.583 221.928 296.691C282.686 233.744 324.837 154.656 372.063 79.7694L362.293 53.9608L362.322 53.9497Z" fill="#005792"/>
</svg>
