<svg width="64" height="64" viewBox="0 0 64 64" fill="none" xmlns="http://www.w3.org/2000/svg">
<g clip-path="url(#clip0)">
<path d="M31.4177 62.7708L31.4175 62.7706C31.2777 62.6454 28.5977 60.2164 26.411 56.4744C28.5439 55.5206 30.4273 54.3546 32.0009 53.2129C33.5743 54.3546 35.4579 55.5206 37.5905 56.4744C35.4039 60.2165 32.7247 62.6455 32.5849 62.7706L32.5847 62.7708C32.4189 62.9193 32.2112 62.9937 32.001 62.9937C31.7911 62.9937 31.5837 62.9195 31.4177 62.7708Z" stroke="#005792" stroke-width="2"/>
<path d="M59.2618 41.6046L59.2617 41.6046C55.4291 45.4368 50.3702 48.1484 44.2679 49.6964L44.2678 49.6964C42.3516 50.1824 40.5204 50.5028 38.8775 50.7124C41.2702 51.9346 44.0659 52.8511 47.062 52.8511C51.3066 52.8511 55.1491 51.0119 58.0124 49.0706C60.8634 47.1376 62.6531 45.1648 62.7749 45.0289L59.2618 41.6046ZM59.2618 41.6046C59.4272 41.4391 59.5903 41.2711 59.751 41.1009M59.2618 41.6046L59.751 41.1009M59.751 41.1009C61.6014 42.5633 62.71 43.7894 62.7753 43.8622C63.0722 44.1943 63.0721 44.6964 62.7752 45.0285L59.751 41.1009Z" stroke="#005792" stroke-width="2"/>
<path d="M19.7336 49.6969L19.7335 49.6968C13.6315 48.149 8.5722 45.4375 4.73953 41.605L19.7336 49.6969ZM19.7336 49.6969C21.6494 50.1825 23.4804 50.5028 25.1231 50.7124C22.7303 51.9346 19.9348 52.8511 16.9384 52.8511C12.694 52.8511 8.85165 51.012 5.9884 49.0709C3.13738 47.138 1.34778 45.1653 1.22596 45.0294L19.7336 49.6969ZM4.24945 41.1009C2.40823 42.5564 1.30102 43.7785 1.22504 43.8628C0.92861 44.195 0.928893 44.6974 1.22589 45.0293L4.24945 41.1009ZM4.24945 41.1009C4.4103 41.2712 4.57353 41.4392 4.73935 41.6049L4.24945 41.1009Z" stroke="#005792" stroke-width="2"/>
<path d="M31.4167 45.0974L31.4164 45.0971C31.2203 44.9216 28.4676 42.4248 25.7707 38.4539C23.067 34.4729 20.4824 29.1031 20.4824 23.1602C20.4824 17.2172 23.0669 11.8476 25.7706 7.86664C28.4674 3.89576 31.22 1.39896 31.4164 1.22317L31.4167 1.22289C31.5828 1.07417 31.7901 1 32 1C32.2102 1 32.4179 1.07432 32.5837 1.22281C32.7803 1.39897 35.5328 3.89582 38.2295 7.86663C40.9331 11.8476 43.5176 17.2172 43.5176 23.1602C43.5176 29.1033 40.9331 34.4731 38.2295 38.454C35.5335 42.4239 32.7817 44.9202 32.5843 45.097C32.4169 45.2467 32.2091 45.3208 32 45.3208C31.7908 45.3208 31.5833 45.2466 31.4167 45.0974Z" stroke="#005792" stroke-width="2"/>
<path d="M49.0806 4.73989C49.1195 4.82001 49.8715 6.39923 50.6604 8.89515C49.2135 9.23264 47.707 9.6632 46.1842 10.2103C45.5349 8.83327 44.7865 7.46393 43.9444 6.11131C46.253 4.91157 47.8963 4.32669 48.0016 4.2894C48.4226 4.14234 48.8863 4.33496 49.0789 4.73635L49.0789 4.73635L49.0806 4.73989Z" stroke="#005792" stroke-width="2"/>
<path d="M15.9981 4.28948C16.0943 4.32341 17.7402 4.90807 20.0552 6.11127C19.2131 7.46395 18.4647 8.83338 17.8154 10.2099C16.2926 9.66279 14.7859 9.23227 13.3392 8.895C14.1263 6.40522 14.8772 4.82658 14.9206 4.73584C15.1135 4.33436 15.5776 4.14199 15.9981 4.28948Z" stroke="#005792" stroke-width="2"/>
<path d="M62.9752 14.2956L62.9752 14.2954C62.9506 13.8506 62.5959 13.4955 62.1512 13.4702C62.0745 13.4662 61.6805 13.4463 61.0366 13.4463C58.7835 13.4463 53.5643 13.686 48.2033 15.5941C48.9083 18.1297 49.2666 20.6645 49.2666 23.1602C49.2666 26.5961 48.5875 30.1062 47.2596 33.59C46.2201 36.3189 44.7805 39.0412 42.9855 41.6844C42.2674 42.7418 41.5453 43.7079 40.8561 44.5717C45.5238 43.6531 51.0494 41.6839 55.1948 37.539C55.1948 37.539 55.1948 37.539 55.1948 37.539M62.9752 14.2956L63.9736 14.2402C64.0078 14.8569 64.7056 29.4424 55.9019 38.2461L55.1948 37.539M62.9752 14.2956C62.9898 14.5586 63.1706 18.2705 62.2697 22.9854C61.3665 27.7121 59.3971 33.3366 55.1948 37.539M62.9752 14.2956L55.1948 37.539" stroke="#005792" stroke-width="2"/>
<path d="M1.84962 13.4702L1.84962 13.4702L1.85215 13.47C1.91757 13.4662 2.31141 13.4463 2.96387 13.4463C5.21702 13.4463 10.4356 13.686 15.7966 15.5941C15.0912 18.1298 14.7329 20.6645 14.7329 23.1602C14.7329 26.5962 15.4126 30.1062 16.7398 33.5899C17.7794 36.3189 19.2195 39.0413 21.0145 41.6844C21.7327 42.7419 22.4548 43.7082 23.1442 44.5721C18.4763 43.6533 12.9506 41.6844 8.80477 37.539C4.60245 33.3367 2.63298 27.7121 1.72979 22.9854C0.828881 18.2705 1.00977 14.5586 1.02435 14.2956L1.02436 14.2954C1.04897 13.8502 1.40438 13.4948 1.84962 13.4702Z" stroke="#005792" stroke-width="2"/>
</g>
<defs>
<clipPath id="clip0">
<rect width="64" height="64" fill="white"/>
</clipPath>
</defs>
</svg>
