<svg width="64" height="64" viewBox="0 0 64 64" fill="none" xmlns="http://www.w3.org/2000/svg">
<path d="M32 0C14.3271 0 0 14.3271 0 32C0 49.6729 14.3271 64 32 64C49.6729 64 64 49.6729 64 32C64 14.3271 49.6729 0 32 0ZM32 61.8666C15.5054 61.8666 2.13337 48.4946 2.13337 32C2.13337 15.5054 15.5054 2.13337 32 2.13337C48.4946 2.13337 61.8666 15.5054 61.8666 32C61.8666 48.4946 48.4946 61.8666 32 61.8666Z" fill="#005792"/>
<path d="M16.0007 22.4C16.0007 20.6329 17.4336 19.2 19.2007 19.2C20.9678 19.2 22.4007 20.6329 22.4007 22.4C22.4007 22.9892 22.8782 23.4667 23.4673 23.4667C24.0564 23.4667 24.5339 22.9892 24.5339 22.4C24.5339 19.4547 22.1459 17.0667 19.2006 17.0667C16.2552 17.0667 13.8672 19.4547 13.8672 22.4C13.8672 22.9892 14.3447 23.4667 14.9338 23.4667C15.5229 23.4667 16.0007 22.9892 16.0007 22.4Z" fill="#005792"/>
<path d="M44.7992 17.0667C41.8538 17.0667 39.4658 19.4547 39.4658 22.4C39.4658 22.9892 39.9433 23.4667 40.5324 23.4667C41.1216 23.4667 41.5991 22.9892 41.5991 22.4C41.5991 20.6329 43.0319 19.2 44.7991 19.2C46.5662 19.2 47.9991 20.6329 47.9991 22.4C47.9991 22.9892 48.4767 23.4667 49.0657 23.4667C49.6548 23.4667 50.1323 22.9892 50.1323 22.4C50.1326 19.4547 47.7446 17.0667 44.7992 17.0667Z" fill="#005792"/>
<path d="M46.5628 34.1333H17.4406C15.4175 34.1333 14.24 36.398 15.3728 38.0686C19.111 43.5871 25.2326 46.9335 31.9954 46.9335C38.7631 46.9335 44.8884 43.5831 48.627 38.0582C49.7543 36.3902 48.5809 34.1333 46.5628 34.1333ZM46.8598 36.863C43.5128 41.8091 38.0446 44.8001 31.9953 44.8001C25.9506 44.8001 20.4858 41.8128 17.1386 36.8717C16.9606 36.6093 17.1388 36.2667 17.4406 36.2667H46.5628C46.86 36.2666 47.0351 36.6035 46.8598 36.863Z" fill="#005792"/>
</svg>
