<svg width="199" height="83" viewBox="0 0 199 83" fill="none" xmlns="http://www.w3.org/2000/svg">
<g clip-path="url(#clip0)">
<path fill-rule="evenodd" clip-rule="evenodd" d="M171.856 23.9446L165.482 48.7337H157.725L162.236 30.8084C162.491 29.6601 163.082 27.8649 162.125 26.8749C161.631 26.3073 160.359 26.2985 159.666 26.2985L146.428 48.7381H137.33L135.118 26.9585H121.408C120.837 26.9585 120.514 27.1697 120.399 27.5745L118.833 33.2416C118.701 33.7168 118.663 34.3592 119.318 34.3592H132.071L131.25 37.4831H122.263C117.859 37.4831 116.331 41.8434 116.148 45.579H130.352L129.68 48.7381H106.94L113.314 23.949C122.969 23.949 132.628 23.949 142.283 23.949L143.887 43.995C143.947 44.7342 143.947 45.4206 144.445 45.4206C144.794 45.4206 145.317 44.4306 145.534 44.0698L151.866 32.8104C152.968 30.8524 153.968 27.8429 151.568 26.8749C150.321 26.3865 148.964 26.4525 147.653 26.4525L148.287 23.9446H171.856ZM62.491 64.811H65.7461C65.7546 64.7054 65.7632 64.6306 65.7632 64.5866C65.7929 64.0718 65.6908 63.6802 65.461 63.4074C65.2313 63.1346 64.9206 62.9982 64.5292 62.9982C64.1079 62.9982 63.7122 63.1522 63.3462 63.4514C62.9846 63.7506 62.6952 64.2038 62.491 64.811ZM65.2738 66.2982L66.2312 66.3994C66.0653 66.8922 65.7164 67.3629 65.1972 67.8073C64.6781 68.2473 64.0654 68.4717 63.3803 68.4717C62.9505 68.4717 62.559 68.3705 62.2144 68.1637C61.8697 67.9613 61.6101 67.6577 61.4485 67.2661C61.2868 66.879 61.2187 66.4302 61.2485 65.9286C61.2868 65.273 61.4697 64.635 61.7974 64.0234C62.125 63.4074 62.5335 62.9498 63.0186 62.6506C63.4994 62.3514 64.0186 62.2018 64.559 62.2018C65.2525 62.2018 65.7929 62.4262 66.1759 62.8706C66.5631 63.315 66.7333 63.9222 66.6865 64.6878C66.6695 64.9826 66.627 65.2818 66.5589 65.5942H62.2867C62.2654 65.713 62.2527 65.8186 62.2484 65.911C62.2144 66.4698 62.3122 66.9009 62.5463 67.1957C62.7761 67.4905 63.0739 67.6401 63.4356 67.6401C63.776 67.6401 64.1164 67.5213 64.4568 67.2969C64.793 67.0637 65.0696 66.7293 65.2738 66.2982ZM71.1417 67.2529C70.397 68.0669 69.6609 68.4717 68.9332 68.4717C68.4864 68.4717 68.129 68.3397 67.8695 68.0757C67.6099 67.8117 67.4907 67.4861 67.5163 67.0989C67.529 66.8481 67.6184 66.417 67.7801 65.801L68.6822 62.3382H69.6694L68.6694 66.175C68.5886 66.4918 68.5375 66.7426 68.5247 66.923C68.512 67.1473 68.5673 67.3277 68.6907 67.4509C68.8141 67.5741 69.0056 67.6401 69.2651 67.6401C69.5417 67.6401 69.8183 67.5697 70.0906 67.4289C70.363 67.2925 70.6012 67.0989 70.8055 66.8657C71.0097 66.6282 71.1842 66.3466 71.3246 66.0254C71.414 65.8186 71.5331 65.4534 71.665 64.9342L72.3416 62.3426H73.333L71.7672 68.3397H70.8566L71.1417 67.2529ZM73.3416 68.3353L74.9074 62.3382H75.7797L75.4649 63.5614C75.7883 63.0994 76.1031 62.7562 76.401 62.5318C76.6989 62.3118 76.9967 62.1974 77.2988 62.1974C77.4946 62.1974 77.7329 62.2722 78.0137 62.4174L77.5541 63.3678C77.3924 63.2402 77.2052 63.1742 77.001 63.1742C76.6563 63.1742 76.2861 63.3766 75.8989 63.7726C75.5117 64.1686 75.184 64.8946 74.916 65.9242L74.2819 68.3309H73.3416V68.3353ZM78.3669 65.9594C78.3328 66.5226 78.4435 66.9537 78.686 67.2441C78.9286 67.5345 79.2562 67.6797 79.6604 67.6797C79.8732 67.6797 80.086 67.6357 80.2987 67.5477C80.5115 67.4597 80.7157 67.3233 80.9029 67.1429C81.0902 66.9625 81.2561 66.7514 81.3923 66.5226C81.5284 66.2938 81.6476 66.0386 81.7412 65.7746C81.8731 65.4006 81.954 65.0442 81.9752 64.701C82.005 64.1598 81.8986 63.7374 81.6518 63.4382C81.4093 63.139 81.0816 62.9894 80.6817 62.9894C80.371 62.9894 80.0817 63.0642 79.8221 63.2182C79.5583 63.3678 79.3115 63.5966 79.0902 63.887C78.869 64.1774 78.6988 64.525 78.5754 64.9122C78.4562 65.3038 78.3881 65.6514 78.3669 65.9594ZM77.3754 66.0606C77.3456 66.5402 77.4222 66.9625 77.5924 67.3277C77.7626 67.6885 78.035 67.9745 78.3881 68.1725C78.7456 68.3705 79.1498 68.4717 79.6009 68.4717C80.1498 68.4717 80.6859 68.3133 81.2008 67.9965C81.7157 67.6841 82.1284 67.2221 82.4305 66.6326C82.7326 66.0386 82.9071 65.3962 82.9497 64.7098C82.9965 63.9442 82.8135 63.3282 82.4178 62.8794C82.0178 62.4306 81.4646 62.2018 80.7668 62.2018C79.8774 62.2018 79.1328 62.5186 78.5498 63.1522C77.835 63.9178 77.4435 64.8902 77.3754 66.0606ZM84.8985 65.8846C84.873 66.3334 84.8857 66.6458 84.9368 66.8173C85.0091 67.0593 85.1538 67.2617 85.3496 67.4113C85.5453 67.5609 85.7878 67.6357 86.0559 67.6357C86.6261 67.6357 87.1069 67.3013 87.4899 66.6458C87.8771 65.9858 88.0941 65.3082 88.1367 64.6174C88.1665 64.1114 88.0728 63.7154 87.8516 63.4382C87.6346 63.1654 87.3495 63.0246 86.9963 63.0246C86.7452 63.0246 86.507 63.095 86.2857 63.2314C86.0644 63.3634 85.8517 63.5746 85.6517 63.8474C85.4517 64.1202 85.2772 64.4546 85.1368 64.8506C85.0006 65.2466 84.9155 65.5898 84.8985 65.8846ZM82.6646 70.6365L84.8304 62.3426H85.741L85.524 63.1786C85.8857 62.8134 86.2048 62.5582 86.4772 62.4174C86.7537 62.2766 87.0431 62.2062 87.341 62.2062C87.8941 62.2062 88.3409 62.4174 88.6813 62.831C89.0175 63.2446 89.1664 63.843 89.1239 64.6174C89.0856 65.2422 88.9537 65.8142 88.7239 66.329C88.4941 66.8393 88.2218 67.2573 87.9111 67.5697C87.6048 67.8777 87.2899 68.1153 86.9878 68.2561C86.6814 68.4013 86.3665 68.4761 86.0559 68.4761C85.3581 68.4761 84.8389 68.1109 84.5028 67.3805L83.656 70.6365H82.6646ZM93.996 61.4055L94.2981 60.2483H95.3278L95.03 61.4055H93.996ZM91.9791 61.4055L92.2812 60.2483H93.3152L93.0131 61.4055H91.9791ZM93.9662 65.2994C93.8258 65.3566 93.6726 65.4006 93.5109 65.427C93.3535 65.4534 93.0811 65.4886 92.7109 65.5238C92.1365 65.5766 91.7238 65.6426 91.4812 65.7262C91.2387 65.8054 91.0514 65.9374 90.9238 66.1134C90.7961 66.2894 90.7195 66.4874 90.711 66.6986C90.694 66.9845 90.7748 67.2221 90.9578 67.4069C91.1365 67.5873 91.4046 67.6841 91.7578 67.6841C92.0854 67.6841 92.4046 67.5961 92.7194 67.4157C93.0343 67.2353 93.2854 66.9845 93.4769 66.6678C93.6683 66.3466 93.83 65.889 93.9662 65.2994ZM93.4641 67.5917C93.1024 67.8953 92.7577 68.1197 92.4344 68.2605C92.111 68.4013 91.7663 68.4717 91.4046 68.4717C90.8685 68.4717 90.443 68.3089 90.1366 67.9833C89.8302 67.6577 89.6898 67.2397 89.7196 66.7337C89.7409 66.3994 89.8302 66.1002 89.9919 65.845C90.1536 65.5898 90.3664 65.3786 90.6174 65.2202C90.8685 65.0662 91.1791 64.9518 91.5323 64.8858C91.7535 64.8462 92.1833 64.8022 92.8046 64.7758C93.4258 64.7494 93.8769 64.6834 94.1534 64.5734C94.247 64.2918 94.2981 64.063 94.3109 63.8782C94.3236 63.6406 94.2513 63.4558 94.0939 63.3194C93.8769 63.1346 93.5449 63.0378 93.1067 63.0378C92.6897 63.0378 92.345 63.1346 92.0727 63.3238C91.8003 63.513 91.5876 63.7858 91.4472 64.1334L90.4515 64.041C90.6898 63.447 91.0429 62.9894 91.5025 62.6726C91.962 62.3558 92.5322 62.1974 93.2045 62.1974C93.9237 62.1974 94.4811 62.3822 94.8768 62.7298C95.1789 62.9938 95.3236 63.337 95.2981 63.7594C95.281 64.0806 95.213 64.4546 95.0981 64.8726L94.6896 66.3642C94.5619 66.8349 94.4853 67.2221 94.4683 67.5213C94.4555 67.7105 94.4811 67.9789 94.5406 68.3353H93.5407C93.4939 68.1417 93.4684 67.8909 93.4641 67.5917ZM95.6938 68.3353L97.2597 62.3382H98.2469L96.681 68.3353H95.6938ZM97.5533 61.2163L97.8554 60.0591H98.8383L98.5362 61.2163H97.5533ZM98.4298 66.285L99.4213 66.2234C99.4043 66.5182 99.4341 66.769 99.5106 66.9757C99.583 67.1825 99.7362 67.3541 99.9617 67.4861C100.187 67.6181 100.46 67.6841 100.77 67.6841C101.208 67.6841 101.545 67.5917 101.77 67.4157C102 67.2353 102.123 67.0197 102.136 66.7733C102.145 66.5974 102.089 66.4302 101.966 66.2718C101.842 66.1134 101.523 65.9198 101.017 65.6866C100.506 65.4534 100.183 65.2906 100.043 65.1982C99.8085 65.0442 99.634 64.8594 99.5234 64.6526C99.4128 64.4458 99.366 64.2038 99.383 63.9354C99.4085 63.4602 99.617 63.051 100 62.7166C100.383 62.3778 100.902 62.2062 101.557 62.2062C102.285 62.2062 102.834 62.3822 103.191 62.7298C103.549 63.0774 103.723 63.5394 103.702 64.107L102.732 64.173C102.736 63.8122 102.63 63.5262 102.413 63.315C102.191 63.1038 101.868 62.9982 101.442 62.9982C101.098 62.9982 100.83 63.0818 100.63 63.2402C100.43 63.3986 100.328 63.579 100.315 63.7682C100.302 63.9574 100.379 64.1246 100.532 64.2654C100.634 64.3622 100.911 64.5162 101.353 64.7186C102.089 65.053 102.553 65.3258 102.736 65.5194C103.03 65.8318 103.166 66.2146 103.14 66.659C103.123 66.9537 103.017 67.2529 102.825 67.5345C102.634 67.8161 102.349 68.0493 101.974 68.2209C101.604 68.3925 101.17 68.4761 100.677 68.4761C100.009 68.4761 99.4468 68.3045 98.9958 67.9613C98.549 67.6181 98.3618 67.0593 98.4298 66.285ZM107.944 66.1486L108.927 66.2586C108.634 67.0065 108.246 67.5653 107.77 67.9261C107.293 68.2869 106.761 68.4717 106.178 68.4717C105.549 68.4717 105.047 68.2605 104.685 67.8381C104.319 67.4157 104.157 66.8261 104.2 66.0694C104.238 65.4138 104.404 64.767 104.689 64.1378C104.978 63.5086 105.366 63.0246 105.855 62.6946C106.34 62.3646 106.885 62.1974 107.489 62.1974C108.11 62.1974 108.595 62.3822 108.936 62.743C109.276 63.1038 109.434 63.5878 109.395 64.1862L108.421 64.2522C108.438 63.8694 108.349 63.5702 108.153 63.359C107.957 63.1478 107.685 63.0378 107.344 63.0378C106.949 63.0378 106.595 63.1654 106.289 63.4294C105.983 63.689 105.727 64.085 105.532 64.613C105.336 65.141 105.221 65.6514 105.196 66.1398C105.166 66.6502 105.251 67.0373 105.455 67.2925C105.659 67.5477 105.919 67.6753 106.238 67.6753C106.557 67.6753 106.876 67.5477 107.183 67.2969C107.489 67.0505 107.749 66.6678 107.944 66.1486ZM109.404 68.3353H110.395L111.063 65.7614C111.259 65.0134 111.463 64.4678 111.663 64.1334C111.863 63.799 112.14 63.5306 112.472 63.337C112.804 63.1434 113.153 63.0466 113.51 63.0466C113.757 63.0466 113.944 63.1126 114.067 63.2358C114.191 63.359 114.25 63.5174 114.238 63.7154C114.229 63.8518 114.157 64.1818 114.021 64.7098L113.068 68.3441H114.055L114.978 64.8022C115.127 64.239 115.208 63.8474 115.221 63.6406C115.246 63.2094 115.131 62.8618 114.884 62.6022C114.633 62.3426 114.267 62.2106 113.787 62.2106C113.455 62.2106 113.123 62.2898 112.795 62.4526C112.468 62.611 112.11 62.875 111.723 63.2446L112.548 60.0679H111.561L109.404 68.3353ZM117.221 64.811H120.476C120.484 64.7054 120.493 64.6306 120.493 64.5866C120.523 64.0718 120.42 63.6802 120.191 63.4074C119.961 63.1346 119.65 62.9982 119.259 62.9982C118.837 62.9982 118.442 63.1522 118.076 63.4514C117.718 63.7506 117.429 64.2038 117.221 64.811ZM120.008 66.2982L120.965 66.3994C120.799 66.8922 120.45 67.3629 119.931 67.8073C119.412 68.2473 118.799 68.4717 118.114 68.4717C117.684 68.4717 117.293 68.3705 116.948 68.1637C116.604 67.9613 116.344 67.6577 116.182 67.2661C116.021 66.879 115.952 66.4302 115.982 65.9286C116.021 65.273 116.204 64.635 116.531 64.0234C116.859 63.4074 117.267 62.9498 117.752 62.6506C118.233 62.3514 118.752 62.2018 119.293 62.2018C119.986 62.2018 120.527 62.4262 120.91 62.8706C121.297 63.315 121.467 63.9222 121.42 64.6878C121.403 64.9826 121.361 65.2818 121.293 65.5942H117.021C116.999 65.713 116.986 65.8186 116.982 65.911C116.948 66.4698 117.05 66.9009 117.28 67.1957C117.51 67.4905 117.808 67.6401 118.169 67.6401C118.51 67.6401 118.85 67.5213 119.191 67.2969C119.527 67.0637 119.803 66.7293 120.008 66.2982ZM54.9679 78.5519L55.9593 78.4903C55.9423 78.7851 55.9721 79.0359 56.0487 79.2427C56.1253 79.4495 56.2742 79.6211 56.4997 79.7531C56.7252 79.8851 56.9976 79.9511 57.3125 79.9511C57.7507 79.9511 58.0826 79.8631 58.3124 79.6827C58.5422 79.5023 58.6656 79.2867 58.6784 79.0403C58.6869 78.8643 58.6358 78.6971 58.5124 78.5387C58.389 78.3803 58.0699 78.1867 57.5635 77.9535C57.0529 77.7203 56.7295 77.5575 56.5891 77.4651C56.3551 77.3111 56.1806 77.1308 56.07 76.9196C55.9593 76.7128 55.9125 76.4708 55.9295 76.2024C55.9593 75.7272 56.1636 75.3224 56.5465 74.9836C56.9295 74.6448 57.4486 74.4732 58.1039 74.4732C58.8315 74.4732 59.3762 74.6492 59.7379 74.9968C60.0996 75.3444 60.2698 75.8064 60.2485 76.374L59.2783 76.44C59.2826 76.0792 59.1762 75.7932 58.9592 75.582C58.7379 75.3708 58.4145 75.2652 57.989 75.2652C57.6444 75.2652 57.3763 75.3444 57.1763 75.5072C56.9763 75.67 56.8742 75.846 56.8614 76.0352C56.8487 76.2244 56.9252 76.3872 57.0784 76.5324C57.1848 76.6292 57.4529 76.7788 57.8997 76.9856C58.6358 77.3243 59.0996 77.5927 59.2826 77.7863C59.5762 78.0987 59.7124 78.4815 59.6868 78.9259C59.6698 79.2251 59.5634 79.5155 59.3719 79.8015C59.1762 80.0875 58.8954 80.3163 58.5209 80.4879C58.1507 80.6595 57.7167 80.7431 57.2231 80.7431C56.555 80.7431 55.9934 80.5715 55.5423 80.2283C55.0828 79.8807 54.8955 79.3219 54.9679 78.5519ZM64.4824 78.4111L65.4653 78.5211C65.1717 79.2735 64.7887 79.8279 64.3079 80.1931C63.8313 80.5539 63.2994 80.7387 62.7165 80.7387C62.0867 80.7387 61.5889 80.5275 61.2229 80.1051C60.857 79.6827 60.6953 79.0931 60.7378 78.3363C60.7761 77.6807 60.9378 77.0384 61.2272 76.4048C61.5165 75.7712 61.9038 75.2916 62.3931 74.9616C62.8824 74.6316 63.4228 74.4644 64.0271 74.4644C64.6483 74.4644 65.1334 74.6492 65.4738 75.01C65.8185 75.3752 65.9717 75.8548 65.9376 76.4532L64.9632 76.5192C64.9845 76.1364 64.8951 75.8416 64.6951 75.626C64.4951 75.4104 64.2271 75.3048 63.8866 75.3048C63.4909 75.3048 63.1377 75.4324 62.8314 75.6964C62.525 75.956 62.2739 76.352 62.074 76.88C61.8782 77.4079 61.7633 77.9183 61.7378 78.4067C61.708 78.9215 61.7931 79.3043 61.9974 79.5595C62.2016 79.8147 62.4654 79.9423 62.7803 79.9423C63.1037 79.9423 63.4143 79.8147 63.7249 79.5639C64.0271 79.3131 64.2824 78.9303 64.4824 78.4111ZM65.9419 80.5979H66.9333L67.6014 78.0239C67.7971 77.276 67.9971 76.7304 68.2014 76.396C68.4056 76.0572 68.6779 75.7932 69.0098 75.5996C69.3417 75.406 69.6906 75.3092 70.0481 75.3092C70.2949 75.3092 70.4821 75.3708 70.6055 75.4984C70.7289 75.6216 70.7885 75.78 70.7757 75.978C70.7672 76.1144 70.6949 76.4444 70.5587 76.9724L69.6055 80.6067H70.5927L71.5161 77.0648C71.665 76.4972 71.7459 76.11 71.7586 75.9032C71.7842 75.472 71.6735 75.1288 71.4225 74.8648C71.1714 74.6008 70.8055 74.4732 70.3247 74.4732C69.9928 74.4732 69.6609 74.5524 69.3332 74.7152C69.0056 74.8736 68.6481 75.1376 68.2609 75.5072L69.0864 72.326H68.0992L65.9419 80.5979ZM73.2692 80.5979L73.0139 74.6008H73.9671L74.0692 77.2935L74.0862 78.8071C74.0862 78.9215 74.0862 79.1503 74.0777 79.4935C74.2096 79.1107 74.3202 78.8159 74.4096 78.6091C74.499 78.4067 74.6351 78.1119 74.8266 77.7335L76.3925 74.6052H77.469L77.4818 77.6015C77.4861 78.0591 77.4648 78.6663 77.4265 79.4275C77.6392 78.9215 77.9797 78.2219 78.4392 77.3244L79.8434 74.6008H80.8306L77.6435 80.5979H76.618L76.6052 77.0779C76.6052 76.858 76.618 76.4356 76.6478 75.802C76.4733 76.2068 76.2733 76.638 76.0393 77.1044L74.299 80.5935H73.2692V80.5979ZM80.2051 80.5979H81.1923L82.7582 74.6008H81.771L80.2051 80.5979ZM82.0646 73.4788L82.3667 72.3216H83.3496L83.0475 73.4788H82.0646ZM82.7241 80.5979L84.29 74.6008H85.2772L85.0177 75.5908C85.4091 75.1684 85.7538 74.8692 86.0516 74.7108C86.3495 74.548 86.6686 74.4688 87.0091 74.4688C87.3707 74.4688 87.6643 74.57 87.8941 74.7636C88.1239 74.9616 88.2686 75.2388 88.3239 75.5908C88.6388 75.2124 88.9664 74.9308 89.3026 74.746C89.6387 74.5612 89.9877 74.4644 90.3493 74.4644C90.8302 74.4644 91.1876 74.5832 91.4174 74.8208C91.6472 75.0584 91.7493 75.3928 91.7237 75.8196C91.7152 76.0044 91.6557 76.308 91.545 76.7348L90.5366 80.5979H89.5451L90.5749 76.6336C90.66 76.308 90.711 76.0792 90.7195 75.9384C90.7323 75.7404 90.6812 75.5864 90.5663 75.4764C90.4515 75.362 90.2855 75.3048 90.0685 75.3048C89.7706 75.3048 89.4643 75.3972 89.1494 75.582C88.8345 75.7668 88.5835 76.0088 88.3962 76.308C88.209 76.6072 88.0303 77.0692 87.8686 77.6895L87.1112 80.5979H86.1197L87.1793 76.5456C87.2516 76.2728 87.2942 76.0748 87.3027 75.9604C87.3154 75.7624 87.2644 75.604 87.1537 75.4852C87.0431 75.362 86.8942 75.3048 86.7027 75.3048C86.4218 75.3048 86.124 75.3972 85.8048 75.582C85.4857 75.7668 85.2219 76.022 85.0091 76.352C84.7964 76.682 84.6092 77.1528 84.4517 77.7599L83.7113 80.5979H82.7241ZM92.0429 80.5979L93.6088 74.6008H94.596L94.3364 75.5908C94.7279 75.1684 95.0725 74.8692 95.3704 74.7108C95.6725 74.548 95.9874 74.4688 96.3278 74.4688C96.6895 74.4688 96.9831 74.57 97.2129 74.7636C97.4427 74.9616 97.5873 75.2388 97.6426 75.5908C97.9575 75.2124 98.2852 74.9308 98.6213 74.746C98.9575 74.5612 99.3064 74.4644 99.6681 74.4644C100.149 74.4644 100.506 74.5832 100.736 74.8208C100.966 75.0584 101.068 75.3928 101.042 75.8196C101.03 76.0044 100.974 76.308 100.864 76.7348L99.8553 80.5979H98.8639L99.8936 76.6336C99.9787 76.308 100.03 76.0792 100.038 75.9384C100.051 75.7404 100 75.5864 99.8851 75.4764C99.7702 75.362 99.6043 75.3048 99.3873 75.3048C99.0894 75.3048 98.783 75.3972 98.4681 75.582C98.1533 75.7668 97.9022 76.0088 97.715 76.308C97.5278 76.6072 97.349 77.0692 97.1873 77.6895L96.4299 80.5979H95.4385L96.498 76.5456C96.5703 76.2728 96.6129 76.0748 96.6214 75.9604C96.6342 75.7624 96.5831 75.604 96.4725 75.4852C96.3618 75.362 96.2129 75.3048 96.0214 75.3048C95.7406 75.3048 95.4427 75.3972 95.1236 75.582C94.8045 75.7668 94.5406 76.022 94.3279 76.352C94.1151 76.682 93.9279 77.1528 93.7705 77.7599L93.0301 80.5979H92.0429ZM102.702 77.9447C102.676 78.3539 102.698 78.6663 102.762 78.8731C102.851 79.1635 102.996 79.3835 103.187 79.5375C103.379 79.6871 103.6 79.7663 103.851 79.7663C104.174 79.7663 104.506 79.6475 104.838 79.4143C105.174 79.1767 105.455 78.8159 105.681 78.3187C105.906 77.8259 106.038 77.3551 106.064 76.9064C106.093 76.4136 105.983 76.022 105.736 75.7272C105.489 75.4368 105.17 75.2916 104.783 75.2916C104.544 75.2916 104.306 75.3576 104.072 75.494C103.838 75.626 103.617 75.8328 103.404 76.1012C103.191 76.374 103.025 76.704 102.906 77.0824C102.783 77.4607 102.715 77.7467 102.702 77.9447ZM101.281 81.1435L102.276 81.2403C102.255 81.4735 102.272 81.6495 102.328 81.7683C102.383 81.8827 102.476 81.9751 102.608 82.0367C102.783 82.1203 103.013 82.1599 103.293 82.1599C103.893 82.1599 104.332 82.0015 104.613 81.6803C104.8 81.4647 104.983 80.9983 105.17 80.2767L105.298 79.7883C104.753 80.3251 104.191 80.5979 103.613 80.5979C103.025 80.5979 102.549 80.3735 102.179 79.9291C101.808 79.4803 101.651 78.8511 101.698 78.0327C101.736 77.3596 101.928 76.7392 102.272 76.176C102.617 75.6128 103.013 75.186 103.459 74.8956C103.906 74.6096 104.357 74.4644 104.813 74.4644C105.574 74.4644 106.136 74.8384 106.506 75.582L106.761 74.6008H107.672L106.161 80.3911C105.995 81.0247 105.8 81.5219 105.57 81.8783C105.34 82.2347 105.038 82.5119 104.655 82.7054C104.276 82.899 103.842 83.0002 103.357 83.0002C102.893 83.0002 102.493 82.9386 102.166 82.8154C101.838 82.6922 101.596 82.5118 101.442 82.2699C101.294 82.0323 101.221 81.7551 101.242 81.4471C101.242 81.3547 101.255 81.2535 101.281 81.1435ZM109.183 77.0736H112.438C112.446 76.968 112.455 76.8932 112.455 76.8492C112.485 76.3344 112.387 75.9428 112.153 75.67C111.923 75.3972 111.608 75.2608 111.221 75.2608C110.8 75.2608 110.404 75.4148 110.038 75.714C109.676 76.0132 109.391 76.4664 109.183 77.0736ZM111.97 78.5607L112.927 78.6619C112.761 79.1547 112.416 79.6255 111.893 80.0699C111.37 80.5143 110.761 80.7343 110.076 80.7343C109.646 80.7343 109.255 80.6331 108.91 80.4263C108.566 80.2195 108.306 79.9203 108.144 79.5287C107.978 79.1371 107.915 78.6927 107.944 78.1911C107.983 77.5355 108.166 76.902 108.493 76.286C108.821 75.67 109.229 75.2124 109.714 74.9132C110.2 74.614 110.71 74.4644 111.255 74.4644C111.948 74.4644 112.485 74.6888 112.872 75.1332C113.259 75.5776 113.429 76.1848 113.382 76.9504C113.365 77.2452 113.323 77.5443 113.255 77.8567H108.983C108.961 77.9755 108.949 78.0811 108.944 78.1735C108.91 78.7323 109.012 79.1635 109.242 79.4583C109.472 79.7531 109.77 79.9027 110.131 79.9027C110.472 79.9027 110.808 79.7883 111.153 79.5595C111.489 79.3263 111.761 78.9919 111.97 78.5607ZM113.808 80.5979L115.374 74.6008H116.361L116.101 75.5908C116.493 75.1684 116.838 74.8692 117.135 74.7108C117.438 74.548 117.752 74.4688 118.093 74.4688C118.455 74.4688 118.748 74.57 118.978 74.7636C119.208 74.9616 119.352 75.2388 119.408 75.5908C119.723 75.2124 120.05 74.9308 120.386 74.746C120.723 74.5612 121.071 74.4644 121.433 74.4644C121.914 74.4644 122.271 74.5832 122.501 74.8208C122.731 75.0584 122.833 75.3928 122.808 75.8196C122.799 76.0044 122.739 76.308 122.629 76.7348L121.62 80.5979H120.629L121.659 76.6336C121.744 76.308 121.795 76.0792 121.803 75.9384C121.816 75.7404 121.765 75.5864 121.65 75.4764C121.535 75.362 121.369 75.3048 121.152 75.3048C120.854 75.3048 120.548 75.3972 120.233 75.582C119.918 75.7668 119.667 76.0088 119.48 76.308C119.293 76.6072 119.114 77.0692 118.952 77.6895L118.195 80.5979H117.204L118.263 76.5456C118.335 76.2728 118.378 76.0748 118.386 75.9604C118.399 75.7624 118.348 75.604 118.237 75.4852C118.127 75.362 117.978 75.3048 117.786 75.3048C117.506 75.3048 117.208 75.3972 116.889 75.582C116.569 75.7668 116.306 76.022 116.093 76.352C115.88 76.682 115.693 77.1528 115.535 77.7599L114.795 80.5979H113.808ZM124.727 77.0736H127.982C127.99 76.968 127.999 76.8932 127.999 76.8492C128.029 76.3344 127.931 75.9428 127.697 75.67C127.467 75.3972 127.152 75.2608 126.765 75.2608C126.344 75.2608 125.948 75.4148 125.582 75.714C125.22 76.0132 124.931 76.4664 124.727 77.0736ZM127.514 78.5607L128.471 78.6619C128.305 79.1547 127.96 79.6255 127.437 80.0699C126.914 80.5143 126.305 80.7343 125.62 80.7343C125.19 80.7343 124.799 80.6331 124.454 80.4263C124.11 80.2195 123.85 79.9203 123.688 79.5287C123.522 79.1371 123.459 78.6927 123.488 78.1911C123.527 77.5355 123.71 76.902 124.037 76.286C124.365 75.67 124.773 75.2124 125.258 74.9132C125.744 74.614 126.254 74.4644 126.799 74.4644C127.492 74.4644 128.029 74.6888 128.416 75.1332C128.803 75.5776 128.973 76.1848 128.926 76.9504C128.909 77.2452 128.867 77.5443 128.799 77.8567H124.527C124.505 77.9755 124.493 78.0811 124.488 78.1735C124.454 78.7323 124.552 79.1635 124.786 79.4583C125.016 79.7531 125.314 79.9027 125.675 79.9027C126.016 79.9027 126.352 79.7883 126.697 79.5595C127.029 79.3263 127.305 78.9919 127.514 78.5607ZM129.318 80.5979L130.884 74.6008H131.871L130.305 80.5979H129.318ZM131.177 73.4788L131.479 72.3216H132.462L132.16 73.4788H131.177ZM131.837 80.5979H132.828L133.552 77.8083C133.79 76.8932 134.122 76.2464 134.539 75.8724C134.956 75.4984 135.415 75.3092 135.926 75.3092C136.177 75.3092 136.364 75.3708 136.492 75.4984C136.615 75.6216 136.675 75.7844 136.662 75.9824C136.654 76.1584 136.594 76.4312 136.501 76.8008L135.509 80.6023H136.496L137.449 76.9724C137.573 76.4928 137.641 76.1452 137.654 75.9208C137.679 75.4808 137.569 75.1244 137.313 74.8648C137.062 74.6008 136.701 74.4688 136.228 74.4688C135.875 74.4688 135.526 74.5656 135.173 74.7504C134.824 74.9396 134.441 75.2388 134.028 75.648L134.301 74.6008H133.407L131.837 80.5979ZM138.275 78.5519L139.266 78.4903C139.249 78.7851 139.279 79.0359 139.356 79.2427C139.432 79.4495 139.581 79.6211 139.807 79.7531C140.032 79.8851 140.305 79.9511 140.62 79.9511C141.058 79.9511 141.39 79.8631 141.619 79.6827C141.849 79.5023 141.973 79.2867 141.985 79.0403C141.994 78.8643 141.943 78.6971 141.815 78.5387C141.692 78.3803 141.373 78.1867 140.866 77.9535C140.356 77.7203 140.032 77.5575 139.892 77.4651C139.658 77.3111 139.483 77.1308 139.373 76.9196C139.262 76.7128 139.215 76.4708 139.232 76.2024C139.262 75.7272 139.466 75.3224 139.849 74.9836C140.232 74.6448 140.751 74.4732 141.407 74.4732C142.134 74.4732 142.679 74.6492 143.041 74.9968C143.402 75.3444 143.573 75.8064 143.551 76.374L142.581 76.44C142.59 76.0792 142.479 75.7932 142.262 75.582C142.041 75.3708 141.717 75.2652 141.292 75.2652C140.947 75.2652 140.679 75.3444 140.479 75.5072C140.279 75.67 140.177 75.846 140.164 76.0352C140.156 76.2244 140.228 76.3872 140.381 76.5324C140.488 76.6292 140.756 76.7788 141.202 76.9856C141.943 77.3243 142.402 77.5927 142.585 77.7863C142.879 78.0987 143.015 78.4815 142.99 78.9259C142.973 79.2251 142.866 79.5155 142.675 79.8015C142.479 80.0875 142.198 80.3163 141.824 80.4879C141.454 80.6595 141.02 80.7431 140.526 80.7431C139.858 80.7431 139.296 80.5715 138.845 80.2283C138.394 79.8807 138.203 79.3219 138.275 78.5519ZM147.789 78.4111L148.772 78.5211C148.479 79.2735 148.096 79.8279 147.615 80.1931C147.138 80.5539 146.606 80.7387 146.024 80.7387C145.394 80.7387 144.896 80.5275 144.53 80.1051C144.164 79.6827 144.002 79.0931 144.045 78.3363C144.083 77.6807 144.245 77.0384 144.534 76.4048C144.824 75.7712 145.211 75.2916 145.7 74.9616C146.189 74.6316 146.73 74.4644 147.334 74.4644C147.955 74.4644 148.44 74.6492 148.781 75.01C149.126 75.3752 149.279 75.8548 149.245 76.4532L148.27 76.5192C148.287 76.1364 148.202 75.8416 148.002 75.626C147.802 75.4104 147.534 75.3048 147.194 75.3048C146.798 75.3048 146.445 75.4324 146.138 75.6964C145.832 75.956 145.581 76.352 145.381 76.88C145.185 77.4079 145.07 77.9183 145.045 78.4067C145.015 78.9215 145.1 79.3043 145.304 79.5595C145.509 79.8147 145.768 79.9423 146.087 79.9423C146.407 79.9423 146.721 79.8147 147.032 79.5639C147.334 79.3131 147.589 78.9303 147.789 78.4111ZM149.249 80.5979H150.24L150.908 78.0239C151.104 77.276 151.308 76.7304 151.508 76.396C151.713 76.0572 151.981 75.7932 152.317 75.5996C152.649 75.406 152.998 75.3092 153.355 75.3092C153.602 75.3092 153.789 75.3708 153.913 75.4984C154.036 75.6216 154.096 75.78 154.083 75.978C154.074 76.1144 154.002 76.4444 153.866 76.9724L152.913 80.6067H153.9L154.823 77.0648C154.972 76.4972 155.053 76.11 155.066 75.9032C155.091 75.472 154.981 75.1288 154.73 74.8648C154.479 74.6008 154.113 74.4732 153.632 74.4732C153.3 74.4732 152.968 74.5524 152.64 74.7152C152.313 74.8736 151.955 75.1376 151.568 75.5072L152.393 72.326H151.406L149.249 80.5979ZM159.925 77.5619C159.785 77.6191 159.631 77.6631 159.47 77.6895C159.308 77.7203 159.044 77.7511 158.67 77.7863C158.091 77.8391 157.683 77.9051 157.44 77.9887C157.198 78.0679 157.015 78.1999 156.883 78.3759C156.751 78.5519 156.678 78.7499 156.67 78.9611C156.653 79.2471 156.734 79.4847 156.917 79.6695C157.095 79.8543 157.363 79.9467 157.717 79.9467C158.044 79.9467 158.363 79.8587 158.678 79.6783C158.989 79.4979 159.244 79.2515 159.436 78.9303C159.631 78.6091 159.793 78.1515 159.925 77.5619ZM159.427 79.8543C159.066 80.1579 158.725 80.3823 158.402 80.5231C158.078 80.6639 157.734 80.7343 157.372 80.7343C156.836 80.7343 156.415 80.5715 156.104 80.2459C155.798 79.9203 155.657 79.5023 155.687 78.9963C155.708 78.6619 155.798 78.3627 155.959 78.1075C156.121 77.8479 156.329 77.6411 156.585 77.4827C156.84 77.3288 157.142 77.2143 157.504 77.1483C157.729 77.1044 158.151 77.0648 158.776 77.0384C159.397 77.012 159.848 76.946 160.121 76.836C160.214 76.5544 160.265 76.3256 160.278 76.1408C160.291 75.9032 160.219 75.7184 160.061 75.582C159.844 75.3972 159.512 75.3004 159.074 75.3004C158.657 75.3004 158.312 75.3972 158.04 75.5864C157.763 75.7756 157.555 76.0484 157.415 76.396L156.419 76.3036C156.657 75.7096 157.006 75.252 157.47 74.9352C157.929 74.6184 158.5 74.46 159.172 74.46C159.891 74.46 160.444 74.6404 160.844 74.9924C161.146 75.2564 161.291 75.5996 161.265 76.022C161.248 76.3432 161.18 76.7128 161.065 77.1352L160.657 78.6267C160.529 79.1019 160.453 79.4891 160.436 79.7839C160.423 79.9731 160.448 80.2415 160.508 80.5979H159.508C159.453 80.4043 159.431 80.1579 159.427 79.8543ZM161.831 80.5979L163.193 75.3928H162.308L162.512 74.6008H163.397L163.619 73.7472C163.729 73.3204 163.84 73.0168 163.942 72.8276C164.048 72.6384 164.206 72.4844 164.423 72.3612C164.64 72.238 164.929 72.1764 165.287 72.1764C165.538 72.1764 165.899 72.2292 166.367 72.3392L166.138 73.2324C165.806 73.14 165.529 73.096 165.304 73.096C165.112 73.096 164.963 73.1488 164.857 73.2456C164.75 73.3468 164.653 73.58 164.555 73.954L164.384 74.5964H165.491L165.287 75.3884H164.184L162.827 80.5935H161.831V80.5979ZM167.159 79.7707C166.984 79.8191 166.789 79.8367 166.572 79.8367C166.418 79.8367 166.308 79.8059 166.248 79.7443C166.184 79.6783 166.159 79.5859 166.163 79.4671C166.167 79.3835 166.223 79.1327 166.333 78.7103L167.197 75.3928H168.163L168.376 74.6008H167.401L167.972 72.4184L166.797 73.1224L166.41 74.5964H165.627L165.423 75.3884H166.206L165.295 78.8731C165.172 79.3483 165.108 79.6519 165.099 79.7839C165.082 80.0435 165.159 80.2503 165.325 80.3999C165.546 80.6023 165.852 80.6991 166.244 80.6991C166.469 80.6991 166.699 80.6683 166.942 80.6023L167.159 79.7707ZM104.706 23.9446L103.625 48.7337H95.5364C95.9831 43.4758 96.4299 38.2223 96.8767 32.9644C96.898 32.7664 96.8895 32.4892 96.6172 32.4232C96.3576 32.3616 96.1619 32.4628 96.0214 32.6916L86.2516 48.7293H82.1497C81.6263 43.5638 81.1582 38.3895 80.5838 33.2328C80.554 32.9688 80.4859 32.5376 80.0604 32.5024C79.8221 32.4804 79.6349 32.6212 79.4647 33.004L72.4565 48.7337H68.3162L79.1541 23.9446H87.4261L88.2856 36.1895C88.3111 36.5635 88.2941 37.0915 88.7324 37.1135C89.1494 37.1355 89.3707 36.7263 89.5792 36.3831L97.0639 23.9402H104.706V23.9446ZM199 24.0986L196.838 32.1944H193.779C193.779 31.156 193.809 29.924 193.668 29.1277C193.196 26.4833 190.562 26.3337 188.486 26.3337C185.826 26.3337 181.775 27.2137 181.775 30.7292C181.775 31.9392 182.979 32.8896 185.392 33.5804C188.971 34.61 196.315 35.2831 196.315 40.4794C196.315 42.9962 194.575 45.0818 191.094 46.7229C185.937 49.1561 180.439 49.3321 174.988 48.1881C174.218 48.0253 173.184 47.7789 171.895 47.4181V42.8686C172.865 43.4582 173.686 43.8938 174.354 44.1798C177.814 45.6582 182.039 46.0849 185.541 44.4878C187.281 43.6914 188.149 42.6002 188.149 41.2098C188.149 39.8987 186.958 38.9923 184.571 38.4907C180.933 37.7251 173.869 37.5887 173.869 32.2648C173.869 29.9769 174.763 28.1113 176.554 26.6725C180.218 23.7334 185.818 23.3594 190.277 23.3594C193.196 23.3682 196.111 23.6894 199 24.0986Z" fill="white"/>
<path fill-rule="evenodd" clip-rule="evenodd" d="M78.5796 1.06513C79.2605 1.72952 79.537 2.6403 79.2987 3.50268C78.7669 4.75666 78.1796 4.97225 77.4222 5.54864C76.8691 5.95344 75.8308 6.63982 74.9457 7.14581V0.396343C76.0351 -0.210845 77.269 -0.215245 78.5796 1.06513ZM74.95 16.7684C75.3372 16.4648 75.7244 16.1656 76.1116 15.8664C77.0648 15.1317 77.9286 14.3969 78.9541 13.7677C82.6092 11.5325 88.4728 9.75496 92.5322 8.86178C97.3193 7.8102 101.868 8.72538 106.195 7.05781C107.208 6.62222 107.429 6.27903 107.161 5.48704C105.927 3.94707 104.6 3.99547 103.196 3.94267C97.3022 4.24627 90.4855 5.23185 84.7623 7.34381C81.8731 8.40859 78.3328 8.63738 76.5882 11.7789C76.0393 12.1397 75.4904 12.5093 74.95 12.8877V16.7684ZM74.95 7.15021C74.5755 7.36141 74.2309 7.54621 73.9628 7.6606C73.2267 7.973 72.5586 7.52421 72.448 7.16341C72.3076 6.71022 72.0352 6.36703 71.7076 6.61782L70.7161 7.30861C70.5587 7.40981 70.4821 7.36581 70.5247 7.21621C70.7587 6.37143 71.3374 4.76546 71.8735 3.86788C72.6097 2.6315 73.6777 1.10913 74.9457 0.400743V7.15021H74.95ZM74.95 12.8877C69.346 16.7992 64.2058 21.5599 58.7507 25.6959C56.087 27.7154 53.2999 29.6074 50.4489 31.3277C44.9938 34.6145 39.0919 37.1532 32.471 37.5184C38.96 32.2429 45.3981 26.8838 52.2063 22.2551C54.2573 20.8603 56.3295 19.5712 58.372 18.1588C59.9549 17.0676 61.5761 16.4384 63.2867 18.348C64.8526 17.6308 65.627 15.8532 67.0269 15.0481C67.1291 14.6477 66.9674 14.4541 66.7674 14.0361C65.1589 13.2793 63.7547 11.4049 61.9123 12.0429C61.6229 9.17417 60.5847 6.71462 58.8358 4.60706C58.4145 4.13187 57.6614 3.59508 56.8231 3.51148C52.0871 3.04069 47.9809 4.58506 43.6492 6.12943C42.1727 6.65302 32.3731 11.0749 31.8965 10.8901C31.671 10.8021 31.5178 10.9737 31.288 11.0573C30.1647 11.4709 27.7478 11.9945 28.8286 12.6809C30.2285 13.6313 31.688 13.5829 33.0497 13.3233C34.5858 13.0285 36.1006 12.6501 37.5899 12.1617C42.9386 10.4017 48.3767 7.16341 53.9211 8.30739C56.5848 8.85738 56.6742 12.5533 56.9806 15.0877C48.483 20.5392 40.3727 26.6594 32.4071 33.2065C30.7774 34.3681 29.1647 35.6881 27.2797 36.3832C20.1311 34.1877 15.344 26.0302 8.1571 24.0327C7.65925 23.8963 7.6167 23.9931 7.31033 24.3979C6.58695 25.3527 6.48483 26.5934 5.92741 27.6274C5.77422 27.9442 5.74869 28.4678 6.29335 28.6262C10.9953 31.1825 15.3568 36.1852 20.1821 38.9484C18.9737 39.5688 17.7822 39.12 16.744 38.9352C13.7015 38.262 10.8634 36.2425 8.21242 34.1877C7.3316 33.5057 3.12327 29.8142 2.02545 30.197C1.15314 31.0022 1.06804 32.4673 0.587209 33.4485C0.365942 33.8269 0.029786 34.4385 0 35.0457C0.131909 35.3713 2.88924 37.2324 4.35301 38.2972C8.80388 41.9931 14.059 45.1963 19.5353 44.4659C21.6672 44.1843 24.8287 43.0755 26.6329 41.8699C27.3776 42.0591 28.5775 42.3363 29.8753 42.4243C34.9177 42.7719 41.0238 39.9824 45.4449 37.822C56.1891 32.5685 65.3462 24.2659 74.9457 16.7684V12.8877H74.95Z" fill="#EC691F"/>
</g>
<defs>
<clipPath id="clip0">
<rect width="199" height="83" fill="white"/>
</clipPath>
</defs>
</svg>
