<svg width="150" height="37" viewBox="0 0 150 37" fill="none" xmlns="http://www.w3.org/2000/svg">
<path fill-rule="evenodd" clip-rule="evenodd" d="M129.449 17.819L124.647 36.2667H118.804L122.202 22.927C122.394 22.0724 122.84 20.7365 122.119 19.9997C121.747 19.5774 120.788 19.5708 120.266 19.5708L110.295 36.2699H103.442L101.776 20.062H91.4487C91.0192 20.062 90.7756 20.2191 90.6891 20.5204L89.5096 24.7377C89.4102 25.0913 89.3814 25.5694 89.875 25.5694H99.4808L98.8622 27.8942H92.0929C88.7756 27.8942 87.625 31.139 87.4872 33.919H98.1859L97.6795 36.2699H80.5513L85.3525 17.8223C92.625 17.8223 99.9006 17.8223 107.173 17.8223L108.381 32.7402C108.426 33.2903 108.426 33.8011 108.801 33.8011C109.064 33.8011 109.458 33.0644 109.622 32.7959L114.391 24.4168C115.221 22.9597 115.974 20.7201 114.167 19.9997C113.228 19.6363 112.205 19.6854 111.218 19.6854L111.695 17.819H129.449ZM78.8686 17.819L78.0545 36.2667H71.9615C72.2981 32.3538 72.6346 28.4443 72.9711 24.5314C72.9872 24.3841 72.9807 24.1778 72.7756 24.1287C72.5801 24.0828 72.4327 24.1582 72.3269 24.3284L64.9679 36.2634H61.8782C61.484 32.4193 61.1314 28.5687 60.6987 24.7312C60.6763 24.5347 60.625 24.2138 60.3045 24.1876C60.125 24.1712 59.984 24.276 59.8557 24.5609L54.5769 36.2667H51.4583L59.6218 17.819H65.8525L66.5 26.9315C66.5192 27.2098 66.5064 27.6028 66.8365 27.6191C67.1506 27.6355 67.3173 27.331 67.4743 27.0756L73.1122 17.8158H78.8686V17.819ZM149.894 17.9336L148.266 23.9584H145.962C145.962 23.1857 145.984 22.2689 145.878 21.6762C145.522 19.7083 143.538 19.597 141.974 19.597C139.971 19.597 136.92 20.2519 136.92 22.8681C136.92 23.7685 137.827 24.4758 139.644 24.9898C142.34 25.756 147.872 26.257 147.872 30.124C147.872 31.9969 146.561 33.549 143.939 34.7703C140.054 36.581 135.913 36.712 131.808 35.8606C131.228 35.7395 130.449 35.5561 129.478 35.2876V31.902C130.208 32.3407 130.827 32.6649 131.33 32.8777C133.936 33.9779 137.119 34.2955 139.756 33.1069C141.067 32.5143 141.721 31.7022 141.721 30.6675C141.721 29.6918 140.824 29.0173 139.026 28.644C136.285 28.0743 130.965 27.9728 130.965 24.0108C130.965 22.3081 131.638 20.9198 132.987 19.8491C135.747 17.6619 139.965 17.3835 143.324 17.3835C145.522 17.3901 147.718 17.6291 149.894 17.9336Z" fill="white"/>
<path fill-rule="evenodd" clip-rule="evenodd" d="M59.1891 0.792592C59.7019 1.28702 59.9103 1.9648 59.7308 2.60657C59.3301 3.53976 58.8878 3.7002 58.3173 4.12914C57.9006 4.43038 57.1186 4.94118 56.4519 5.31773V0.294893C57.2724 -0.156965 58.2019 -0.16024 59.1891 0.792592ZM56.4551 12.4787C56.7468 12.2528 57.0385 12.0301 57.3301 11.8075C58.0481 11.2606 58.6987 10.7138 59.4712 10.2456C62.2244 8.58224 66.641 7.25941 69.6987 6.59472C73.3045 5.81215 76.7308 6.49321 79.9904 5.25224C80.7532 4.92808 80.9199 4.67268 80.7179 4.0833C79.7885 2.93728 78.7885 2.9733 77.7308 2.93401C73.2917 3.15994 68.1571 3.89339 63.8462 5.46507C61.6699 6.25746 59.0032 6.42773 57.6891 8.7656C57.2756 9.0341 56.8622 9.30914 56.4551 9.59073V12.4787ZM56.4551 5.321C56.1731 5.47817 55.9135 5.61569 55.7115 5.70082C55.1571 5.9333 54.6538 5.59932 54.5705 5.33082C54.4647 4.99357 54.2596 4.73817 54.0128 4.9248L53.266 5.43888C53.1474 5.51419 53.0897 5.48144 53.1218 5.37011C53.2981 4.74144 53.734 3.54631 54.1378 2.87834C54.6923 1.95826 55.4968 0.825336 56.4519 0.298167V5.321H56.4551ZM56.4551 9.59073C52.234 12.5016 48.3622 16.0445 44.2532 19.1223C42.2468 20.6252 40.1474 22.0332 38 23.3135C33.891 25.7594 29.4455 27.6487 24.4583 27.9205C29.3462 23.9945 34.1955 20.0064 39.3237 16.5618C40.8686 15.5238 42.4295 14.5645 43.9679 13.5134C45.1603 12.7014 46.3814 12.2331 47.6699 13.6542C48.8494 13.1205 49.4327 11.7976 50.4872 11.1984C50.5641 10.9005 50.4423 10.7564 50.2917 10.4453C49.0801 9.88215 48.0224 8.48728 46.6346 8.96206C46.4167 6.82719 45.6346 4.99684 44.3173 3.42843C44 3.0748 43.4327 2.67534 42.8013 2.61312C39.234 2.26277 36.141 3.41206 32.8782 4.56135C31.766 4.951 24.3846 8.24171 24.0256 8.10419C23.8558 8.0387 23.7404 8.1664 23.5673 8.22861C22.7212 8.5364 20.9006 8.92604 21.7147 9.43684C22.7692 10.1441 23.8686 10.1081 24.8942 9.91489C26.0513 9.69551 27.1923 9.41392 28.3141 9.05047C32.3429 7.74073 36.4391 5.33082 40.6154 6.18215C42.6218 6.59144 42.6891 9.34188 42.9199 11.2279C36.5192 15.2848 30.4103 19.8394 24.4103 24.7116C23.1827 25.576 21.9679 26.5583 20.5481 27.0757C15.1635 25.4418 11.5577 19.3712 6.14423 17.8846C5.76923 17.7831 5.73718 17.8552 5.50641 18.1564C4.96154 18.8669 4.88462 19.7903 4.46474 20.5598C4.34936 20.7955 4.33013 21.1852 4.74038 21.303C8.28205 23.2054 11.5673 26.9283 15.2019 28.9846C14.2917 29.4463 13.3942 29.1123 12.6122 28.9748C10.3205 28.4738 8.18269 26.9709 6.1859 25.4418C5.52244 24.9343 2.35256 22.1871 1.52564 22.472C0.86859 23.0712 0.804487 24.1615 0.442308 24.8917C0.275641 25.1733 0.0224359 25.6284 0 26.0803C0.099359 26.3226 2.17628 27.7076 3.27885 28.5C6.63141 31.2505 10.5897 33.6342 14.7147 33.0906C16.3205 32.8811 18.7019 32.056 20.0609 31.1588C20.6218 31.2996 21.5256 31.5059 22.5032 31.5714C26.3013 31.83 30.9006 29.7541 34.2308 28.1464C42.3237 24.2368 49.2212 18.0582 56.4519 12.4787V9.59073H56.4551Z" fill="#EC691F"/>
</svg>
