<svg width="62" height="80" viewBox="0 0 94 121" fill="none" xmlns="http://www.w3.org/2000/svg">
<path d="M46.6667 120.025C38.2462 112.842 30.4413 104.968 23.3333 96.4848C12.6667 83.7448 5.89108e-06 64.7714 5.89108e-06 46.6914C-0.00944852 27.8084 11.3617 10.7807 28.8071 3.55407C46.2526 -3.67256 66.3338 0.326352 79.68 13.6848C88.4564 22.4221 93.3728 34.3074 93.3336 46.6914C93.3336 64.7714 80.6667 83.7448 70 96.4848C62.8921 104.968 55.0871 112.842 46.6667 120.025Z" fill="#00204A"/>
<path d="M0.500006 46.6914L0.500006 46.6912C0.490653 28.0105 11.7399 11.1652 28.9985 4.016C46.257 -3.13319 66.1231 0.82287 79.3263 14.0381L79.3273 14.0391C88.009 22.6823 92.8724 34.4393 92.8336 46.6898V46.6914C92.8336 55.6199 89.7039 64.801 85.2238 73.3587C80.7459 81.9122 74.9362 89.8103 69.6168 96.1637C62.6181 104.517 54.942 112.277 46.6667 119.367C38.3913 112.277 30.7152 104.517 23.7166 96.1637C18.3972 89.8103 12.5875 81.9122 8.10964 73.3587C3.6296 64.801 0.500006 55.6199 0.500006 46.6914Z" stroke="#005792" stroke-opacity="0.5"/>
<circle cx="46.5" cy="46.5" r="40.5" fill="#00204A"/>
<g clip-path="url(#clip0)">
<path fill-rule="evenodd" clip-rule="evenodd" d="M70.2315 43.4622L68.1829 51.1876H65.6899L67.1395 45.6013C67.2215 45.2434 67.4116 44.6839 67.1039 44.3754C66.9453 44.1985 66.5364 44.1958 66.3135 44.1958L62.0592 51.189H59.1354L58.4243 44.4014H54.0181C53.8349 44.4014 53.731 44.4673 53.694 44.5934L53.1908 46.3595C53.1484 46.5076 53.1361 46.7078 53.3467 46.7078H57.4451L57.1812 47.6814H54.293C52.8776 47.6814 52.3867 49.0403 52.3279 50.2044H56.8927L56.6766 51.189H49.3686L51.4171 43.4635C54.52 43.4635 57.6243 43.4635 60.7272 43.4635L61.2427 49.7108C61.2619 49.9412 61.2619 50.1551 61.4219 50.1551C61.534 50.1551 61.7022 49.8465 61.772 49.7341L63.8068 46.2252C64.161 45.615 64.4824 44.6771 63.7111 44.3754C63.3104 44.2232 62.8742 44.2437 62.453 44.2437L62.6568 43.4622H70.2315ZM48.6506 43.4622L48.3033 51.1876H45.7036C45.8472 49.549 45.9908 47.9118 46.1344 46.2731C46.1412 46.2114 46.1385 46.1251 46.051 46.1045C45.9675 46.0853 45.9046 46.1168 45.8595 46.1881L42.7197 51.1862H41.4014C41.2332 49.5764 41.0827 47.9639 40.8981 46.3568C40.8886 46.2745 40.8667 46.1401 40.7299 46.1292C40.6533 46.1223 40.5932 46.1662 40.5385 46.2855L38.2862 51.1876H36.9556L40.4386 43.4622H43.0971L43.3733 47.2783C43.3815 47.3948 43.3761 47.5594 43.5169 47.5662C43.651 47.5731 43.7221 47.4455 43.7891 47.3386L46.1945 43.4608H48.6506V43.4622ZM78.9549 43.5101L78.2602 46.0332H77.2769C77.2769 45.7096 77.2865 45.3256 77.2414 45.0774C77.0896 44.2533 76.2431 44.2067 75.5757 44.2067C74.721 44.2067 73.4192 44.481 73.4192 45.5766C73.4192 45.9537 73.8062 46.2498 74.5816 46.4651C75.7316 46.786 78.092 46.9958 78.092 48.6152C78.092 49.3995 77.5327 50.0495 76.414 50.5609C74.7566 51.3192 72.9898 51.3741 71.238 51.0176C70.9904 50.9668 70.6581 50.89 70.2438 50.7776V49.3598C70.5556 49.5435 70.8195 49.6793 71.0342 49.7684C72.146 50.2291 73.5039 50.3621 74.6294 49.8644C75.1887 49.6162 75.4677 49.2761 75.4677 48.8428C75.4677 48.4342 75.0848 48.1517 74.3176 47.9954C73.1484 47.7568 70.8783 47.7143 70.8783 46.0551C70.8783 45.3421 71.1655 44.7607 71.7412 44.3123C72.9186 43.3963 74.7183 43.2798 76.1515 43.2798C77.0896 43.2825 78.0263 43.3826 78.9549 43.5101Z" fill="white"/>
<path fill-rule="evenodd" clip-rule="evenodd" d="M40.254 36.3323C40.4728 36.5393 40.5617 36.8232 40.4851 37.0919C40.3142 37.4827 40.1255 37.5499 39.8821 37.7295C39.7043 37.8557 39.3706 38.0696 39.0862 38.2273V36.1239C39.4362 35.9346 39.8328 35.9333 40.254 36.3323ZM39.0875 41.2261C39.212 41.1315 39.3364 41.0383 39.4609 40.945C39.7672 40.7161 40.0448 40.4871 40.3744 40.291C41.5491 39.5944 43.4335 39.0404 44.7381 38.7621C46.2766 38.4344 47.7385 38.7196 49.1292 38.1999C49.4547 38.0641 49.5258 37.9572 49.4397 37.7104C49.0431 37.2304 48.6164 37.2455 48.1651 37.2291C46.2711 37.3237 44.0803 37.6308 42.241 38.289C41.3125 38.6208 40.1747 38.6921 39.614 39.6712C39.4376 39.7836 39.2612 39.8988 39.0875 40.0167V41.2261ZM39.0875 38.2287C38.9672 38.2945 38.8564 38.3521 38.7703 38.3877C38.5337 38.4851 38.319 38.3452 38.2834 38.2328C38.2383 38.0915 38.1508 37.9846 38.0455 38.0628L37.7268 38.278C37.6762 38.3096 37.6516 38.2959 37.6653 38.2492C37.7405 37.986 37.9265 37.4855 38.0988 37.2057C38.3354 36.8204 38.6786 36.346 39.0862 36.1252V38.2287H39.0875ZM39.0875 40.0167C37.2865 41.2357 35.6345 42.7194 33.8814 44.0083C33.0253 44.6377 32.1296 45.2274 31.2133 45.7635C29.4602 46.7878 27.5634 47.579 25.4356 47.6928C27.521 46.0487 29.5901 44.3786 31.7781 42.9361C32.4373 42.5014 33.1032 42.0996 33.7597 41.6595C34.2684 41.3194 34.7894 41.1233 35.3391 41.7184C35.8424 41.4949 36.0913 40.9409 36.5412 40.69C36.574 40.5652 36.5221 40.5049 36.4578 40.3746C35.9409 40.1388 35.4896 39.5546 34.8974 39.7535C34.8044 38.8594 34.4708 38.0929 33.9087 37.4361C33.7733 37.288 33.5313 37.1207 33.2619 37.0947C31.7398 36.948 30.4202 37.4293 29.028 37.9105C28.5535 38.0737 25.4041 39.4518 25.2509 39.3942C25.1785 39.3668 25.1292 39.4203 25.0554 39.4463C24.6944 39.5752 23.9176 39.7384 24.265 39.9523C24.7149 40.2485 25.1839 40.2334 25.6215 40.1525C26.1152 40.0606 26.6021 39.9427 27.0807 39.7905C28.7997 39.242 30.5474 38.2328 32.3292 38.5893C33.1853 38.7607 33.214 39.9125 33.3125 40.7023C30.5815 42.4013 27.975 44.3086 25.415 46.349C24.8913 46.711 24.373 47.1224 23.7672 47.339C21.4697 46.6548 19.9313 44.1126 17.6215 43.49C17.4615 43.4475 17.4479 43.4777 17.3494 43.6038C17.1169 43.9014 17.0841 44.2881 16.905 44.6103C16.8557 44.709 16.8475 44.8722 17.0226 44.9216C18.5337 45.7183 19.9354 47.2773 21.4862 48.1384C21.0978 48.3318 20.7149 48.1919 20.3812 48.1343C19.4034 47.9245 18.4913 47.2951 17.6393 46.6548C17.3562 46.4423 16.0038 45.2918 15.6509 45.4111C15.3706 45.662 15.3432 46.1186 15.1887 46.4244C15.1176 46.5424 15.0096 46.733 15 46.9222C15.0424 47.0236 15.9285 47.6037 16.399 47.9355C17.8294 49.0873 19.5183 50.0856 21.2783 49.8579C21.9634 49.7702 22.9795 49.4246 23.5593 49.0489C23.7986 49.1079 24.1843 49.1943 24.6014 49.2217C26.2219 49.33 28.1843 48.4607 29.6051 47.7874C33.0581 46.1502 36.001 43.5627 39.0862 41.2261V40.0167H39.0875Z" fill="#EC691F"/>
</g>
<defs>
<clipPath id="clip0">
<rect width="64" height="15.4947" fill="white" transform="translate(15 36)"/>
</clipPath>
</defs>
</svg>
