<svg width="1170" height="475" viewBox="0 0 1170 475" fill="none" xmlns="http://www.w3.org/2000/svg">
<path d="M1080.14 137.481C1073.31 140.878 1066.49 144.275 1059.65 147.738L1070.27 89.4682C1070.25 89.4791 1070.22 89.4899 1070.2 89.5008L1059.58 147.726C890.115 233.146 725.311 331.907 544.229 380.394C469.721 400.325 367.346 424.937 290.065 405.453C270.17 400.46 252.311 392.904 241.276 387.956C209.983 400.954 157.895 408.659 124.049 406.856C37.0824 402.33 -35.6816 339.368 -94.6188 271.281C-114.414 251.152 -152.099 215.406 -153.254 210.144C-151.13 201.111 -144.24 192.879 -139.771 187.823C-129.624 174.451 -124.292 152.691 -108.554 143.069C-90.4731 140.427 -35.287 207.762 -23.4882 220.494C12.0161 258.846 50.5216 297.199 95.8823 315.914C111.485 321.626 128.742 331.736 149.19 325.839C81.8889 270.699 27.9159 183.243 -38.0364 131.557C-46.0532 127.638 -44.2235 119.849 -40.9795 115.525C-29.5001 101.577 -24.5186 83.2349 -10.6814 70.945C-4.81972 65.7337 -3.89451 64.4006 3.45629 67.8571C109.494 118.183 161.431 254.211 266.332 307.402C297.482 302.296 326.117 287.038 354.583 274.207C496.096 198.436 638.684 129.482 785.45 71.6659C787.635 32.7452 796.368 -23.003 756.545 -38.7968C673.655 -71.6591 580.416 -38.4188 492.611 -27.1239C468.168 -24.0037 443.629 -22.6075 418.989 -22.5267C397.152 -22.4809 374.375 -25.8831 355.257 -44.1137C340.367 -57.4776 379.299 -58.502 397.861 -61.5343C401.655 -62.1395 404.501 -64.2827 407.759 -62.3234C414.647 -58.2004 578.796 -96.8737 603.138 -100.559C674.574 -111.493 742.511 -123.066 814.701 -102.599C827.478 -98.9723 837.694 -88.7815 842.928 -80.4547C864.292 -43.8616 873.667 -3.99355 870.302 39.9C900.635 35.5328 917.29 67.6493 940.173 83.5629C942.132 90.4049 944.11 93.7693 941.43 99.4924C917.505 107.622 900.623 132.122 874.364 138.461C853.052 104.949 826.176 109.81 798.63 121.716C763.074 137.145 727.393 150.64 691.753 165.781C573.45 216.022 458.89 278.277 343.768 339.133C447.494 352.38 546.013 330.956 639.648 297.037C688.591 279.271 737.013 258.747 783.87 235.959C879.806 189.301 972.569 132.376 1070.2 89.5008L1070.21 89.4562L1070.27 89.4682C1079.69 85.3154 1089.22 81.3187 1098.72 77.4542C1134.39 35.2186 1189.95 41.7985 1237.69 33.9842C1332.27 18.4632 1440.73 22.9489 1533 35.0626C1554.64 39.8279 1575.37 42.8569 1590.3 69.4709C1592.29 82.1212 1587.92 86.6484 1571.01 90.3239C1499.3 103.121 1431.24 76.5105 1354.09 78.7578C1288.66 80.6852 1192.82 90.7878 1129.99 114.009C1112.35 120.555 1096.94 129.145 1080.14 137.481Z" fill="#005792" fill-opacity="0.2"/>
</svg>
